<?xml version="1.0" encoding="UTF-8" standalone="no"?>
<svg
   xmlns:dc="http://purl.org/dc/elements/1.1/"
   xmlns:cc="http://creativecommons.org/ns#"
   xmlns:rdf="http://www.w3.org/1999/02/22-rdf-syntax-ns#"
   xmlns:svg="http://www.w3.org/2000/svg"
   xmlns="http://www.w3.org/2000/svg"
   xmlns:xlink="http://www.w3.org/1999/xlink"
   xmlns:sodipodi="http://sodipodi.sourceforge.net/DTD/sodipodi-0.dtd"
   xmlns:inkscape="http://www.inkscape.org/namespaces/inkscape"
   inkscape:export-ydpi="16"
   inkscape:export-xdpi="16"
   inkscape:export-filename="./lab_icon.png"
   width="1000"
   height="1000"
   viewBox="0 0 264.58333 264.58333"
   version="1.1"
   id="lab_icon"
   inkscape:version="1.0 (4035a4f, 2020-05-01)"
   sodipodi:docname="lab_icon.svg">
  <defs
     id="defs3614">
    <clipPath
       id="clipPath9433-6-7"
       clipPathUnits="userSpaceOnUse">
      <path
         id="path9435-0-2"
         d="m 964.33791,455.07378 c -79.57693,37.56737 -171.70506,13.25806 -254.23581,38.35449 -34.07669,23.431 -72.6625,-9.70189 -110.05856,0.37842 -62.02669,2.81784 -124.05506,16.26371 -179.23588,44.47021 -68.5195,8.13064 -147.58601,-11.56988 -203.34472,41.33301 -52.81761,47.88132 -134.886089,46.19585 -179.125976,105.48096 -38.51605016,34.54101 -93.091231,43.74273 -129.849806,81.87476 -26.977958,19.16654 -50.605058,45.73147 -48.311808,80.57641 -20.4355,41.24764 -75.89187,50.55688 -94.28885,95.18441 -53.82019,94.35865 -100.43356,199.03645 -93.03194,310.27165 5.4866,33.6899 -19.03215,82.7094 24.61523,96.9451 68.14113,49.7257 85.3535,154.0858 174.51706,177.9687 71.273233,37.1488 157.979301,6.2605 226.921401,48.3411 2.103609,29.6549 -31.971562,52.5529 -33.203125,83.5449 -7.888893,47.6165 25.93845,88.6179 34.790044,133.8623 9.54348,28.1488 34.15033,50.1749 63.97705,50.9522 7.46563,17.45 4.42769,40.6754 23.60839,53.479 35.46014,35.4616 69.61751,85.1105 126.23293,81.4208 39.63437,6.0309 47.90969,58.9887 88.54981,66.6871 76.78169,26.2838 148.82519,-28.6458 224.62156,-34.6314 72.31444,-9.015 147.42588,-24.2973 219.78763,-10.9741 50.98212,32.4046 107.14412,65.6395 170.62986,58.9111 32.9049,-1.5004 64.6536,-18.8858 97.229,-11.6577 43.2296,-4.5952 65.1803,-56.0808 107.1533,-59.1064 107.5509,17.8342 184.5316,114.9989 295.9717,122.5219 36.4947,-0.8101 61.7842,30.8013 95.2271,36.377 46.385,-12.1176 92.1804,-27.4012 139.7705,-34.5093 93.6813,-28.9042 134.932,-130.3183 143.9639,-220.1259 18.679,-115.9653 41.3646,-238.0233 11.0288,-353.8609 -25.9395,-53.0938 -40.4925,-110.1876 -43.3432,-169.4092 -9.727,-83.5949 -13.1957,-170.9695 -58.0485,-245.0073 -36.1815,-66.0741 -59.2628,-142.26457 -110.8886,-198.30322 -52.5382,-25.3196 -51.2921,-87.98095 -78.4058,-131.81153 -32.0764,-41.25832 -85.4014,-58.61987 -122.3022,-95.62988 -60.779,-44.46284 -110.0634,-103.72237 -172.1802,-145.80078 -56.1733,-15.91662 -114.0577,-26.79204 -168.8233,-47.94922 -23.1289,-8.64362 -46.8689,4.63926 -50.6225,28.6499 -21.204,9.43899 -36.9471,-25.15374 -51.8702,-35.51279 -19.9472,-27.4358 -53.72679,-43.60728 -87.42429,-43.2958 z"
         style="opacity:1;fill:#0000ff;fill-opacity:1;stroke:none;stroke-width:25.0016" />
    </clipPath>
    <clipPath
       clipPathUnits="userSpaceOnUse"
       id="clipPath9433-6-6-41">
      <path
         style="opacity:1;fill:#0000ff;fill-opacity:1;stroke:none;stroke-width:25.0016"
         d="m 964.33791,455.07378 c -79.57693,37.56737 -171.70506,13.25806 -254.23581,38.35449 -34.07669,23.431 -72.6625,-9.70189 -110.05856,0.37842 -62.02669,2.81784 -124.05506,16.26371 -179.23588,44.47021 -68.5195,8.13064 -147.58601,-11.56988 -203.34472,41.33301 -52.81761,47.88132 -134.886089,46.19585 -179.125976,105.48096 -38.51605016,34.54101 -93.091231,43.74273 -129.849806,81.87476 -26.977958,19.16654 -50.605058,45.73147 -48.311808,80.57641 -20.4355,41.24764 -75.89187,50.55688 -94.28885,95.18441 -53.82019,94.35865 -100.43356,199.03645 -93.03194,310.27165 5.4866,33.6899 -19.03215,82.7094 24.61523,96.9451 68.14113,49.7257 85.3535,154.0858 174.51706,177.9687 71.273233,37.1488 157.979301,6.2605 226.921401,48.3411 2.103609,29.6549 -31.971562,52.5529 -33.203125,83.5449 -7.888893,47.6165 25.93845,88.6179 34.790044,133.8623 9.54348,28.1488 34.15033,50.1749 63.97705,50.9522 7.46563,17.45 4.42769,40.6754 23.60839,53.479 35.46014,35.4616 69.61751,85.1105 126.23293,81.4208 39.63437,6.0309 47.90969,58.9887 88.54981,66.6871 76.78169,26.2838 148.82519,-28.6458 224.62156,-34.6314 72.31444,-9.015 147.42588,-24.2973 219.78763,-10.9741 50.98212,32.4046 107.14412,65.6395 170.62986,58.9111 32.9049,-1.5004 64.6536,-18.8858 97.229,-11.6577 43.2296,-4.5952 65.1803,-56.0808 107.1533,-59.1064 107.5509,17.8342 184.5316,114.9989 295.9717,122.5219 36.4947,-0.8101 61.7842,30.8013 95.2271,36.377 46.385,-12.1176 92.1804,-27.4012 139.7705,-34.5093 93.6813,-28.9042 134.932,-130.3183 143.9639,-220.1259 18.679,-115.9653 41.3646,-238.0233 11.0288,-353.8609 -25.9395,-53.0938 -40.4925,-110.1876 -43.3432,-169.4092 -9.727,-83.5949 -13.1957,-170.9695 -58.0485,-245.0073 -36.1815,-66.0741 -59.2628,-142.26457 -110.8886,-198.30322 -52.5382,-25.3196 -51.2921,-87.98095 -78.4058,-131.81153 -32.0764,-41.25832 -85.4014,-58.61987 -122.3022,-95.62988 -60.779,-44.46284 -110.0634,-103.72237 -172.1802,-145.80078 -56.1733,-15.91662 -114.0577,-26.79204 -168.8233,-47.94922 -23.1289,-8.64362 -46.8689,4.63926 -50.6225,28.6499 -21.204,9.43899 -36.9471,-25.15374 -51.8702,-35.51279 -19.9472,-27.4358 -53.72679,-43.60728 -87.42429,-43.2958 z"
         id="path9435-0-6-34" />
    </clipPath>
    <clipPath
       id="clipPath9433-6-6-4-7"
       clipPathUnits="userSpaceOnUse">
      <path
         id="path9435-0-6-6-2"
         d="m 964.33791,455.07378 c -79.57693,37.56737 -171.70506,13.25806 -254.23581,38.35449 -34.07669,23.431 -72.6625,-9.70189 -110.05856,0.37842 -62.02669,2.81784 -124.05506,16.26371 -179.23588,44.47021 -68.5195,8.13064 -147.58601,-11.56988 -203.34472,41.33301 -52.81761,47.88132 -134.886089,46.19585 -179.125976,105.48096 -38.51605016,34.54101 -93.091231,43.74273 -129.849806,81.87476 -26.977958,19.16654 -50.605058,45.73147 -48.311808,80.57641 -20.4355,41.24764 -75.89187,50.55688 -94.28885,95.18441 -53.82019,94.35865 -100.43356,199.03645 -93.03194,310.27165 5.4866,33.6899 -19.03215,82.7094 24.61523,96.9451 68.14113,49.7257 85.3535,154.0858 174.51706,177.9687 71.273233,37.1488 157.979301,6.2605 226.921401,48.3411 2.103609,29.6549 -31.971562,52.5529 -33.203125,83.5449 -7.888893,47.6165 25.93845,88.6179 34.790044,133.8623 9.54348,28.1488 34.15033,50.1749 63.97705,50.9522 7.46563,17.45 4.42769,40.6754 23.60839,53.479 35.46014,35.4616 69.61751,85.1105 126.23293,81.4208 39.63437,6.0309 47.90969,58.9887 88.54981,66.6871 76.78169,26.2838 148.82519,-28.6458 224.62156,-34.6314 72.31444,-9.015 147.42588,-24.2973 219.78763,-10.9741 50.98212,32.4046 107.14412,65.6395 170.62986,58.9111 32.9049,-1.5004 64.6536,-18.8858 97.229,-11.6577 43.2296,-4.5952 65.1803,-56.0808 107.1533,-59.1064 107.5509,17.8342 184.5316,114.9989 295.9717,122.5219 36.4947,-0.8101 61.7842,30.8013 95.2271,36.377 46.385,-12.1176 92.1804,-27.4012 139.7705,-34.5093 93.6813,-28.9042 134.932,-130.3183 143.9639,-220.1259 18.679,-115.9653 41.3646,-238.0233 11.0288,-353.8609 -25.9395,-53.0938 -40.4925,-110.1876 -43.3432,-169.4092 -9.727,-83.5949 -13.1957,-170.9695 -58.0485,-245.0073 -36.1815,-66.0741 -59.2628,-142.26457 -110.8886,-198.30322 -52.5382,-25.3196 -51.2921,-87.98095 -78.4058,-131.81153 -32.0764,-41.25832 -85.4014,-58.61987 -122.3022,-95.62988 -60.779,-44.46284 -110.0634,-103.72237 -172.1802,-145.80078 -56.1733,-15.91662 -114.0577,-26.79204 -168.8233,-47.94922 -23.1289,-8.64362 -46.8689,4.63926 -50.6225,28.6499 -21.204,9.43899 -36.9471,-25.15374 -51.8702,-35.51279 -19.9472,-27.4358 -53.72679,-43.60728 -87.42429,-43.2958 z"
         style="opacity:1;fill:#0000ff;fill-opacity:1;stroke:none;stroke-width:25.0016" />
    </clipPath>
    <clipPath
       clipPathUnits="userSpaceOnUse"
       id="clipPath9433-6-7-1">
      <path
         style="opacity:1;fill:#0000ff;fill-opacity:1;stroke:none;stroke-width:25.0016"
         d="m 964.33791,455.07378 c -79.57693,37.56737 -171.70506,13.25806 -254.23581,38.35449 -34.07669,23.431 -72.6625,-9.70189 -110.05856,0.37842 -62.02669,2.81784 -124.05506,16.26371 -179.23588,44.47021 -68.5195,8.13064 -147.58601,-11.56988 -203.34472,41.33301 -52.81761,47.88132 -134.886089,46.19585 -179.125976,105.48096 -38.51605016,34.54101 -93.091231,43.74273 -129.849806,81.87476 -26.977958,19.16654 -50.605058,45.73147 -48.311808,80.57641 -20.4355,41.24764 -75.89187,50.55688 -94.28885,95.18441 -53.82019,94.35865 -100.43356,199.03645 -93.03194,310.27165 5.4866,33.6899 -19.03215,82.7094 24.61523,96.9451 68.14113,49.7257 85.3535,154.0858 174.51706,177.9687 71.273233,37.1488 157.979301,6.2605 226.921401,48.3411 2.103609,29.6549 -31.971562,52.5529 -33.203125,83.5449 -7.888893,47.6165 25.93845,88.6179 34.790044,133.8623 9.54348,28.1488 34.15033,50.1749 63.97705,50.9522 7.46563,17.45 4.42769,40.6754 23.60839,53.479 35.46014,35.4616 69.61751,85.1105 126.23293,81.4208 39.63437,6.0309 47.90969,58.9887 88.54981,66.6871 76.78169,26.2838 148.82519,-28.6458 224.62156,-34.6314 72.31444,-9.015 147.42588,-24.2973 219.78763,-10.9741 50.98212,32.4046 107.14412,65.6395 170.62986,58.9111 32.9049,-1.5004 64.6536,-18.8858 97.229,-11.6577 43.2296,-4.5952 65.1803,-56.0808 107.1533,-59.1064 107.5509,17.8342 184.5316,114.9989 295.9717,122.5219 36.4947,-0.8101 61.7842,30.8013 95.2271,36.377 46.385,-12.1176 92.1804,-27.4012 139.7705,-34.5093 93.6813,-28.9042 134.932,-130.3183 143.9639,-220.1259 18.679,-115.9653 41.3646,-238.0233 11.0288,-353.8609 -25.9395,-53.0938 -40.4925,-110.1876 -43.3432,-169.4092 -9.727,-83.5949 -13.1957,-170.9695 -58.0485,-245.0073 -36.1815,-66.0741 -59.2628,-142.26457 -110.8886,-198.30322 -52.5382,-25.3196 -51.2921,-87.98095 -78.4058,-131.81153 -32.0764,-41.25832 -85.4014,-58.61987 -122.3022,-95.62988 -60.779,-44.46284 -110.0634,-103.72237 -172.1802,-145.80078 -56.1733,-15.91662 -114.0577,-26.79204 -168.8233,-47.94922 -23.1289,-8.64362 -46.8689,4.63926 -50.6225,28.6499 -21.204,9.43899 -36.9471,-25.15374 -51.8702,-35.51279 -19.9472,-27.4358 -53.72679,-43.60728 -87.42429,-43.2958 z"
         id="path9435-0-2-6" />
    </clipPath>
  </defs>
  <sodipodi:namedview
     units="px"
     id="base"
     pagecolor="#ffffff"
     bordercolor="#666666"
     borderopacity="1.0"
     inkscape:pageopacity="0.0"
     inkscape:pageshadow="2"
     inkscape:zoom="0.2"
     inkscape:cx="644.43776"
     inkscape:cy="438.80128"
     inkscape:document-units="mm"
     inkscape:current-layer="layer1"
     inkscape:document-rotation="0"
     showgrid="false"
     fit-margin-top="0"
     fit-margin-left="0"
     fit-margin-right="0"
     fit-margin-bottom="0"
     inkscape:window-width="1534"
     inkscape:window-height="1035"
     inkscape:window-x="1837"
     inkscape:window-y="23"
     inkscape:window-maximized="0" />
  <metadata
     id="metadata3617">
    <rdf:RDF>
      <cc:Work
         rdf:about="">
        <dc:format>image/svg+xml</dc:format>
        <dc:type
           rdf:resource="http://purl.org/dc/dcmitype/StillImage" />
        <dc:title></dc:title>
      </cc:Work>
    </rdf:RDF>
  </metadata>
  <g
     inkscape:label="Layer 1"
     inkscape:groupmode="layer"
     id="layer1"
     transform="translate(511.77982,256.86725)">
    <image
       sodipodi:absref="/Users/kohler/Google Drive/PRESENTATIONS/FIGURES/Logos_etc/lab_logos/logo_P3_icon_texture.png"
       xlink:href="logo_P3_icon_texture.png"
       id="icon_wallpaper"
       style="stroke-width:1.33333;image-rendering:optimizeQuality"
       preserveAspectRatio="none"
       height="317.5"
       width="317.5"
       x="-538.23816"
       y="-283.32559"
       inkscape:export-filename="/Users/kohler/Desktop/image1529.png"
       inkscape:export-xdpi="40"
       inkscape:export-ydpi="40"
       inkscape:svg-dpi="1" />
    <path
       inkscape:transform-center-x="2.2088751e-06"
       inkscape:transform-center-y="6.445705e-06"
       d="m -379.48816,-230.94844 52.91667,30.55146 -1e-5,61.1029 -52.91666,30.55145 -52.91666,-30.55146 0,-61.1029 z"
       inkscape:randomized="0"
       inkscape:rounded="0"
       inkscape:flatsided="true"
       sodipodi:arg2="-1.0471976"
       sodipodi:arg1="-1.5707963"
       sodipodi:r2="52.916664"
       sodipodi:r1="61.102901"
       sodipodi:cy="-169.84554"
       sodipodi:cx="-379.48816"
       sodipodi:sides="6"
       id="green-block"
       style="fill:#00ff00;stroke-width:6.61501;fill-opacity:0.29803923"
       sodipodi:type="star" />
    <path
       sodipodi:type="star"
       style="fill:#0000ff;fill-opacity:0.29803923;stroke-width:6.61501"
       id="blue-block"
       sodipodi:sides="6"
       sodipodi:cx="-326.5715"
       sodipodi:cy="-78.191182"
       sodipodi:r1="61.102901"
       sodipodi:r2="52.916664"
       sodipodi:arg1="-1.5707963"
       sodipodi:arg2="-1.0471976"
       inkscape:flatsided="true"
       inkscape:rounded="0"
       inkscape:randomized="0"
       d="m -326.5715,-139.29409 52.91666,30.55146 0,61.102897 -52.91666,30.551449 -52.91667,-30.551452 0,-61.102904 z"
       inkscape:transform-center-y="6.445705e-06"
       inkscape:transform-center-x="2.2088751e-06" />
    <path
       inkscape:transform-center-x="2.2088751e-06"
       inkscape:transform-center-y="6.445705e-06"
       d="m -432.40481,-139.29409 52.91666,30.55146 0,61.102897 -52.91667,30.551449 -52.91666,-30.551452 0,-61.102904 z"
       inkscape:randomized="0"
       inkscape:rounded="0"
       inkscape:flatsided="true"
       sodipodi:arg2="-1.0471976"
       sodipodi:arg1="-1.5707963"
       sodipodi:r2="52.916664"
       sodipodi:r1="61.102901"
       sodipodi:cy="-78.191185"
       sodipodi:cx="-432.40483"
       sodipodi:sides="6"
       id="red-block"
       style="fill:#ff0000;fill-opacity:0.29803923;stroke-width:6.61501"
       sodipodi:type="star" />
  </g>
</svg>
